<svg xmlns="http://www.w3.org/2000/svg" width="800" height="56" viewBox="0 0 800 56" xmlns:xlink="http://www.w3.org/1999/xlink" class="WaveDrom">
  <g transform="translate(0.5,0.5)" text-anchor="middle" font-size="14" font-family="sans-serif" font-weight="normal">
    <g transform="translate(4,21)">
      <g stroke="black" stroke-width="1" stroke-linecap="round">
        <line x2="791"/>
        <line y2="31"/>
        <line x2="791" y1="31" y2="31"/>
        <line x1="791" x2="791" y2="31"/>
        <line x1="751" x2="751" y2="3"/>
        <line x1="751" x2="751" y1="31" y2="28"/>
        <line x1="712" x2="712" y2="3"/>
        <line x1="712" x2="712" y1="31" y2="28"/>
        <line x1="672" x2="672" y2="3"/>
        <line x1="672" x2="672" y1="31" y2="28"/>
        <line x1="633" x2="633" y2="3"/>
        <line x1="633" x2="633" y1="31" y2="28"/>
        <line x1="593" x2="593" y2="3"/>
        <line x1="593" x2="593" y1="31" y2="28"/>
        <line x1="554" x2="554" y2="3"/>
        <line x1="554" x2="554" y1="31" y2="28"/>
        <line x1="514" x2="514" y2="3"/>
        <line x1="514" x2="514" y1="31" y2="28"/>
        <line x1="475" x2="475" y2="3"/>
        <line x1="475" x2="475" y1="31" y2="28"/>
        <line x1="435" x2="435" y2="3"/>
        <line x1="435" x2="435" y1="31" y2="28"/>
        <line x1="396" x2="396" y2="3"/>
        <line x1="396" x2="396" y1="31" y2="28"/>
        <line x1="356" x2="356" y2="3"/>
        <line x1="356" x2="356" y1="31" y2="28"/>
        <line x1="316" x2="316" y2="3"/>
        <line x1="316" x2="316" y1="31" y2="28"/>
        <line x1="277" x2="277" y2="3"/>
        <line x1="277" x2="277" y1="31" y2="28"/>
        <line x1="237" x2="237" y2="3"/>
        <line x1="237" x2="237" y1="31" y2="28"/>
        <line x1="198" x2="198" y2="3"/>
        <line x1="198" x2="198" y1="31" y2="28"/>
        <line x1="158" x2="158" y2="31"/>
        <line x1="119" x2="119" y2="3"/>
        <line x1="119" x2="119" y1="31" y2="28"/>
        <line x1="79" x2="79" y2="3"/>
        <line x1="79" x2="79" y1="31" y2="28"/>
        <line x1="40" x2="40" y2="3"/>
        <line x1="40" x2="40" y1="31" y2="28"/>
      </g>
      <g>
        <g>
          <rect x="158" width="633" height="31" field="v_thr" style="fill-opacity:0.1;fill:#ffbf00"/>
          <rect width="158" height="31" field="t_ref" style="fill-opacity:0.1;fill:#00ffd5"/>
        </g>
        <g transform="translate(20,-11)">
          <g transform="translate(751)">
            <text y="6">0</text>
          </g>
          <g transform="translate(158)">
            <text y="6">15</text>
          </g>
          <g transform="translate(119)">
            <text y="6">16</text>
          </g>
          <g transform="translate(0)">
            <text y="6">19</text>
          </g>
        </g>
        <g transform="translate(20,15)">
          <g transform="translate(455)">
            <text y="6">
              <tspan>v_thr</tspan>
            </text>
          </g>
          <g transform="translate(59)">
            <text y="6">
              <tspan>t_ref</tspan>
            </text>
          </g>
        </g>
        <g transform="translate(20,39)"/>
      </g>
    </g>
  </g>
</svg>

